<?xml version="1.0" encoding="utf-8"?>
<!-- Generator: Adobe Illustrator 22.0.1, SVG Export Plug-In . SVG Version: 6.00 Build 0)  -->
<svg version="1.1" xmlns="http://www.w3.org/2000/svg" xmlns:xlink="http://www.w3.org/1999/xlink" x="0px" y="0px"
	 viewBox="0 0 512 512" style="enable-background:new 0 0 512 512;" xml:space="preserve">
<style type="text/css">
	.st0{fill:#7585F0;stroke:#000000;stroke-width:20;stroke-linecap:round;stroke-linejoin:round;stroke-miterlimit:10;}
	.st1{fill:none;stroke:#000000;stroke-width:20;stroke-linecap:round;stroke-linejoin:round;stroke-miterlimit:10;}
	.st2{fill:#FFFFFF;}
	.st3{fill:#E4B75C;stroke:#000000;stroke-width:20;stroke-linecap:round;stroke-linejoin:round;stroke-miterlimit:10;}
	.st4{fill:#DE5A5A;stroke:#000000;stroke-width:20;stroke-linecap:round;stroke-linejoin:round;stroke-miterlimit:10;}
	.st5{fill:#D4F4FF;}
	.st6{fill:#D4F4FF;stroke:#000000;stroke-width:20;stroke-linecap:round;stroke-linejoin:round;stroke-miterlimit:10;}
	.st7{fill:#F2DF98;stroke:#000000;stroke-width:20;stroke-linecap:round;stroke-linejoin:round;stroke-miterlimit:10;}
	.st8{fill:#FFFFFF;stroke:#000000;stroke-width:20;stroke-linecap:round;stroke-linejoin:round;stroke-miterlimit:10;}
	.st9{fill:#87BF8C;stroke:#000000;stroke-width:20;stroke-linecap:round;stroke-linejoin:round;stroke-miterlimit:10;}
	.st10{fill:#7585F0;}
	.st11{fill:#EDD4B4;stroke:#000000;stroke-width:20;stroke-linecap:round;stroke-linejoin:round;stroke-miterlimit:10;}
	.st12{fill:#E4B75C;}
	.st13{fill:#AACF9A;stroke:#000000;stroke-width:20;stroke-linecap:round;stroke-linejoin:round;stroke-miterlimit:10;}
	.st14{fill:#E8C673;stroke:#000000;stroke-width:20;stroke-linecap:round;stroke-linejoin:round;stroke-miterlimit:10;}
	.st15{fill:#F2DF98;}
	.st16{fill:#D0524E;stroke:#000000;stroke-width:20;stroke-linecap:round;stroke-linejoin:round;stroke-miterlimit:10;}
	.st17{fill:#87BF8C;}
	.st18{fill:#AACF9A;}
	.st19{fill:#DE5A5A;}
	.st20{fill:#E8C673;}
	.st21{fill:#7ACBAA;}
	.st22{fill:#EFCDC2;}
	.st23{fill:#6B7DFA;stroke:#000000;stroke-width:20;stroke-linecap:round;stroke-linejoin:round;stroke-miterlimit:10;}
</style>
<g id="GUIDELINES">
</g>
<g id="ICON_1_">
	<g>
		<g>
			<g>
				<g>
					<path class="st6" d="M444.6,382.4c17.3,0,31.4-14,31.4-31.4V89c0-17.3-14-31.4-31.4-31.4H67.4C50.1,57.6,36,71.6,36,89v262
						c0,17.3,14,31.4,31.4,31.4"/>
				</g>
			</g>
		</g>
		<g>
			<g>
				<g>
					<path class="st2" d="M443.1,324V117.4l0-2.7c0.1-9.4-7.5-17.1-16.9-17.1H292.1c-9.9,0-18.9,5.4-23.6,14.1l0,0
						c-1.5,2.7-4.7,5.7-9.5,5.7v225.5h129.1"/>
					<path class="st1" d="M374,97.6h-81.9c-9.9,0-18.9,5.4-23.6,14.1l0,0c-1.5,2.7-4.7,5.7-9.5,5.7"/>
					<line class="st1" x1="443.1" y1="207.7" x2="443.1" y2="159.3"/>
					<path class="st1" d="M259,342.9h129.1h31c13.2,0,24-10.7,24-24v-46.8"/>
				</g>
				<g>
					<path class="st2" d="M136.7,342.9H259V117.4c-4.7,0-8-2.9-9.5-5.7v0c-4.7-8.7-13.8-14.1-23.6-14.1H91.8
						c-9.4,0-17,7.7-16.9,17.1l0,2.7v190.1"/>
					<path class="st1" d="M259,284.4v-167c-4.7,0-8-2.9-9.5-5.7v0c-4.7-8.7-13.8-14.1-23.6-14.1H91.8c-9.4,0-17,7.7-16.9,17.1l0,2.7
						v201.5c0,13.2,10.7,24,24,24h37.8H259"/>
				</g>
			</g>
			<path class="st4" d="M434.4,187.8L410,175l-24.4,12.8c-3.9,2.1-8.7-0.8-8.7-5.2V97.6h52.1c7.8,0,14.1,6.3,14.1,14.1v70.8
				C443.1,187,438.3,189.8,434.4,187.8z"/>
		</g>
		<g>
			<line class="st1" x1="129.5" y1="170" x2="210.5" y2="170"/>
			<line class="st1" x1="129.5" y1="220" x2="210.5" y2="220"/>
			<line class="st1" x1="129.5" y1="270" x2="210.5" y2="270"/>
		</g>
		<g>
			<line class="st1" x1="307.5" y1="170" x2="370.3" y2="170"/>
			<line class="st1" x1="307.5" y1="220" x2="388.5" y2="220"/>
			<line class="st1" x1="307.5" y1="270" x2="388.5" y2="270"/>
		</g>
		<path class="st0" d="M377,382.4h125v37.9c0,18.9-15.3,34.1-34.1,34.1H44.1c-18.9,0-34.1-15.3-34.1-34.1v-37.9h143"/>
		<path class="st7" d="M377,382.4v16c0,11.1-9,20.1-20.1,20.1H155.1c-11.1,0-20.1-9-20.1-20.1v-16h158"/>
	</g>
</g>
</svg>
